<?xml version="1.0" encoding="UTF-8" standalone="no"?>
<!-- Created with Inkscape (http://www.inkscape.org/) -->

<svg
   xmlns:dc="http://purl.org/dc/elements/1.1/"
   xmlns:cc="http://creativecommons.org/ns#"
   xmlns:rdf="http://www.w3.org/1999/02/22-rdf-syntax-ns#"
   xmlns:svg="http://www.w3.org/2000/svg"
   xmlns="http://www.w3.org/2000/svg"
   xmlns:sodipodi="http://sodipodi.sourceforge.net/DTD/sodipodi-0.dtd"
   xmlns:inkscape="http://www.inkscape.org/namespaces/inkscape"
   id="svg2"
   version="1.1"
   inkscape:version="0.92.2 2405546, 2018-03-11"
   width="185.17194"
   height="106.89132"
   viewBox="0 0 185.17194 106.89132"
   sodipodi:docname="logo.svg">
  <metadata
     id="metadata8">
    <rdf:RDF>
      <cc:Work
         rdf:about="">
        <dc:format>image/svg+xml</dc:format>
        <dc:type
           rdf:resource="http://purl.org/dc/dcmitype/StillImage" />
        <dc:title />
      </cc:Work>
    </rdf:RDF>
  </metadata>
  <defs
     id="defs6">
    <clipPath
       clipPathUnits="userSpaceOnUse"
       id="clipPath820">
      <path
         style="fill:none;stroke:#000000;stroke-width:1px;stroke-linecap:butt;stroke-linejoin:miter;stroke-opacity:1"
         d="m -420.0874,149.79386 124.83448,120.96134 c 25.64388,-2.51998 48.32738,-6.53633 73.88772,-19.9616 18.18836,-9.90959 39.31473,-23.9033 53.33024,-43.20048 12.71813,-14.63776 20.13322,-32.30584 27.40996,-50.05297 5.66979,-9.65578 6.09107,-20.62369 8.93803,-30.98517 l 0.59587,-11.3215 -52.43644,-68.524895 -75.07945,-1.191737 -17.87606,19.663666 75.67531,86.400956 -10.12976,5.95868 -85.20922,-100.701797 -94.74312,-15.492585 -39.32733,36.943856 z"
         id="path822"
         inkscape:connector-curvature="0"
         sodipodi:nodetypes="cccccccccccccccc" />
    </clipPath>
    <clipPath
       clipPathUnits="userSpaceOnUse"
       id="clipPath927">
      <g
         id="g947">
        <path
           inkscape:connector-curvature="0"
           id="path929"
           d="m -874.88415,34.344311 0.14897,9.682866 2.38347,4.469014 4.17108,2.90486 0.22345,-6.703522 7.89526,-0.148967 -0.67035,-3.053827 -2.60692,-3.277278 -3.05383,-1.787606 z"
           style="fill:none;stroke:#000000;stroke-width:1px;stroke-linecap:butt;stroke-linejoin:miter;stroke-opacity:1" />
        <path
           inkscape:connector-curvature="0"
           id="path931"
           d="m -818.29398,36.989505 -9.68287,0.14897 -4.46901,2.38347 -2.90486,4.17108 6.70352,0.22345 0.14896,7.89526 3.05383,-0.67035 3.27728,-2.60692 1.78761,-3.05383 z"
           style="fill:none;stroke:#000000;stroke-width:1px;stroke-linecap:butt;stroke-linejoin:miter;stroke-opacity:1" />
        <g
           id="g937">
          <path
             style="fill:none;stroke:#000000;stroke-width:1px;stroke-linecap:butt;stroke-linejoin:miter;stroke-opacity:1"
             d="m -857.97638,55.199714 0.14897,4.469015 -4.61798,-4.022114 v -5.064883 l 5.4373,-0.07448 3.87315,4.320048 z"
             id="path933"
             inkscape:connector-curvature="0" />
          <path
             style="fill:none;stroke:#000000;stroke-width:1px;stroke-linecap:butt;stroke-linejoin:miter;stroke-opacity:1"
             d="m -849.85766,62.946006 0.0745,-9.086997 -6.85249,-6.778006 -8.78906,0.148967 -0.22345,8.93803 6.62903,6.703523 z"
             id="path935"
             inkscape:connector-curvature="0" />
        </g>
        <g
           id="g943"
           transform="rotate(90,-848.29249,64.399148)">
          <path
             style="fill:none;stroke:#000000;stroke-width:1px;stroke-linecap:butt;stroke-linejoin:miter;stroke-opacity:1"
             d="m -857.97638,55.199714 0.14897,4.469015 -4.61798,-4.022114 v -5.064883 l 5.4373,-0.07448 3.87315,4.320048 z"
             id="path939"
             inkscape:connector-curvature="0" />
          <path
             style="fill:none;stroke:#000000;stroke-width:1px;stroke-linecap:butt;stroke-linejoin:miter;stroke-opacity:1"
             d="m -849.85766,62.946006 0.0745,-9.086997 -6.85249,-6.778006 -8.78906,0.148967 -0.22345,8.93803 6.62903,6.703523 z"
             id="path941"
             inkscape:connector-curvature="0" />
        </g>
        <path
           inkscape:connector-curvature="0"
           id="path945"
           d="m -852.01769,66.223284 h 7.52284 v 3.12831 l -3.72418,2.457958 -3.79866,-2.681409 z"
           style="fill:none;stroke:#000000;stroke-width:1px;stroke-linecap:butt;stroke-linejoin:miter;stroke-opacity:1" />
      </g>
    </clipPath>
    <clipPath
       clipPathUnits="userSpaceOnUse"
       id="clipPath953">
      <path
         style="fill:none;stroke:#000000;stroke-width:1px;stroke-linecap:butt;stroke-linejoin:miter;stroke-opacity:1"
         d="m -403.07725,95.100241 142.68742,176.957439 c 30.12854,-4.6401 50.45588,-15.70711 70.72435,-27.44422 22.35536,-12.94559 37.0658,-31.94786 48.53471,-49.48258 26.37828,-40.32951 23.40187,-65.96268 27.78957,-98.77313 l -37.76829,-54.89117 -48.60698,61.63265 -11.19165,-13.728691 -73.0769,48.700141 -13.89826,-17.97388 -47.9102,-43.3968 -43.10589,-6.044158 z"
         id="path955"
         inkscape:connector-curvature="0"
         sodipodi:nodetypes="ccssccccccccc" />
    </clipPath>
  </defs>
  <sodipodi:namedview
     pagecolor="#ffffff"
     bordercolor="#666666"
     borderopacity="1"
     objecttolerance="10"
     gridtolerance="10"
     guidetolerance="10"
     inkscape:pageopacity="0"
     inkscape:pageshadow="2"
     inkscape:window-width="1920"
     inkscape:window-height="1048"
     id="namedview4"
     showgrid="false"
     fit-margin-top="0"
     fit-margin-left="0"
     fit-margin-right="0"
     fit-margin-bottom="0"
     inkscape:zoom="1.6782222"
     inkscape:cx="-361.94244"
     inkscape:cy="-13.216004"
     inkscape:window-x="0"
     inkscape:window-y="0"
     inkscape:window-maximized="1"
     inkscape:current-layer="svg2" />
  <g
     id="g960"
     inkscape:export-xdpi="96"
     inkscape:export-ydpi="96">
    <circle
       r="171.47211"
       cy="102.45147"
       cx="-284.99527"
       id="path812"
       style="opacity:1;fill:#ff9a3e;fill-opacity:1;stroke:#000000;stroke-width:0;stroke-linejoin:round;stroke-miterlimit:4;stroke-dasharray:none;stroke-opacity:1" />
    <rect
       clip-path="url(#clipPath953)"
       y="4.0836849"
       x="-439.03915"
       height="289.04114"
       width="348.02911"
       id="rect949"
       style="opacity:0.322;fill:#000000;fill-opacity:1;stroke:#000000;stroke-width:0;stroke-linejoin:round;stroke-miterlimit:4;stroke-dasharray:none;stroke-opacity:1" />
    <circle
       transform="matrix(4.6610867,0,0,4.6610867,3663.0297,-130.94471)"
       clip-path="url(#clipPath927)"
       r="36.429066"
       cy="48.928417"
       cx="-848.04761"
       id="path866"
       style="opacity:1;fill:#ffffff;fill-opacity:1;stroke:#000000;stroke-width:0;stroke-linejoin:round;stroke-miterlimit:4;stroke-dasharray:none;stroke-opacity:1" />
  </g>
</svg>
